<svg xmlns="http://www.w3.org/2000/svg" width="460" height="280" viewBox="0 0 460 280" fill="none"><title>One vault with two layers of risk</title><g stroke="#d8bdc4"><ellipse cx="230" cy="218" rx="178" ry="46" stroke-dasharray="3 6"/><path d="m230 35 144 71-144 72-144-72 144-71Z" fill="#f4e2e6"/><path d="M86 106v50l144 72v-50L86 106Z" fill="#9e1c29" stroke="#9e1c29"/><path d="m230 178 144-72v50l-144 72v-50Z" fill="#c65e72" stroke="#c65e72"/><path d="m230 60 102 50-102 51-102-51 102-50Z" fill="#fffaf7"/><path d="M128 110v19l102 51v-19l-102-51Z" fill="#ddc2c9"/><path d="m230 161 102-51v19l-102 51v-19Z" fill="#eddae0"/><path d="M230 9v25M230 239v23" stroke-dasharray="3 4"/></g><circle cx="230" cy="9" r="4" fill="#9e1c29"/><circle cx="230" cy="265" r="4" fill="#9e1c29"/></svg>
